<svg width="101" height="40" viewBox="0 0 101 40" fill="none" xmlns="http://www.w3.org/2000/svg">
<path d="M9.63295 32.7143V27.7127H12.9446V28.5845H10.6904V29.7763H12.7248V30.6482H10.6904V32.7143H9.63295ZM22.9659 27.7127V32.7143H21.9085V27.7127H22.9659ZM36.2721 27.7127V32.7143H35.3587L33.1827 29.5663H33.1461V32.7143H32.0886V27.7127H33.0166L35.1755 30.8582H35.2195V27.7127H36.2721ZM46.2605 32.7143H45.1273L46.8539 27.7127H48.2167L49.9409 32.7143H48.8077L47.5548 28.8556H47.5158L46.2605 32.7143ZM46.1897 30.7483H48.8663V31.5738H46.1897V30.7483ZM62.9789 27.7127V32.7143H62.0656L59.8896 29.5663H59.853V32.7143H58.7955V27.7127H59.7235L61.8824 30.8582H61.9264V27.7127H62.9789ZM76.5183 29.4637H75.4486C75.4291 29.3253 75.3892 29.2024 75.329 29.0949C75.2687 28.9859 75.1914 28.8931 75.0969 28.8165C75.0025 28.74 74.8934 28.6814 74.7697 28.6407C74.6476 28.6 74.5149 28.5796 74.3716 28.5796C74.1127 28.5796 73.8872 28.644 73.6951 28.7726C73.503 28.8996 73.354 29.0852 73.2482 29.3294C73.1424 29.572 73.0895 29.8667 73.0895 30.2135C73.0895 30.57 73.1424 30.8696 73.2482 31.1122C73.3557 31.3548 73.5055 31.5379 73.6976 31.6617C73.8897 31.7854 74.1119 31.8473 74.3643 31.8473C74.5059 31.8473 74.637 31.8286 74.7575 31.7911C74.8796 31.7537 74.9879 31.6991 75.0823 31.6275C75.1767 31.5542 75.2549 31.4655 75.3167 31.3613C75.3802 31.2571 75.4242 31.1382 75.4486 31.0047L76.5183 31.0096C76.4906 31.2392 76.4214 31.4606 76.3107 31.6739C76.2016 31.8855 76.0543 32.0752 75.8687 32.2429C75.6847 32.409 75.4649 32.5409 75.2093 32.6386C74.9553 32.7346 74.6679 32.7826 74.3472 32.7826C73.9011 32.7826 73.5022 32.6817 73.1505 32.4798C72.8005 32.2779 72.5237 31.9857 72.3202 31.6031C72.1183 31.2205 72.0173 30.7573 72.0173 30.2135C72.0173 29.668 72.1199 29.204 72.3251 28.8214C72.5302 28.4388 72.8086 28.1474 73.1603 27.9471C73.512 27.7452 73.9076 27.6443 74.3472 27.6443C74.637 27.6443 74.9056 27.685 75.1531 27.7664C75.4022 27.8478 75.6228 27.9667 75.8149 28.123C76.0071 28.2776 76.1634 28.4673 76.2838 28.692C76.406 28.9167 76.4841 29.1739 76.5183 29.4637ZM85.5292 32.7143V27.7127H88.8994V28.5845H86.5867V29.7763H88.7261V30.6482H86.5867V31.8424H88.9092V32.7143H85.5292Z" fill="#052C65"/>
<path d="M0.229271 27.814C0.0764448 27.7185 3.155e-05 27.6039 3.155e-05 27.4702C3.155e-05 27.3938 0.0191349 27.3173 0.0573415 27.2409C0.0955481 27.1645 0.124203 27.1072 0.143306 27.069C0.487166 26.5341 1.09847 26.0088 1.97722 25.493C2.62674 25.13 3.16163 24.5856 3.5819 23.8596C4.44155 22.3696 5.27255 21.0037 6.07489 19.762C7.8706 16.801 9.24604 14.4799 10.2012 12.7988C11.1564 11.0986 12.0447 9.29337 12.8661 7.38304C13.1527 6.67622 13.6207 5.63509 14.2702 4.25965C14.3466 4.10682 14.5568 3.66744 14.9006 2.94152C14.9388 2.846 15.0248 2.64542 15.1585 2.33976C15.3113 2.03411 15.4642 1.76666 15.617 1.53743C15.6934 1.4228 15.7794 1.27953 15.8749 1.1076C15.9704 0.916567 16.0659 0.76374 16.1614 0.649121C16.257 0.534501 16.3716 0.477192 16.5053 0.477192C16.639 0.477192 16.7536 0.515398 16.8492 0.59181C17.002 0.687328 17.0784 0.792396 17.0784 0.907016C17.0784 1.02164 16.9829 1.19357 16.7918 1.42281C16.6008 1.63294 16.4862 1.78577 16.448 1.88128C16.1996 2.47349 15.894 3.123 15.531 3.82982L14.5854 5.80702C12.2739 11.0986 9.27469 16.5908 5.58775 22.2836C5.35851 22.6275 5.0051 23.2292 4.52752 24.0889C6.07489 23.5731 7.19243 23.2101 7.88015 23C9.04545 22.637 10.2394 22.4556 11.462 22.4556C13.0094 22.4556 14.6714 22.7517 16.448 23.3439C17.5178 23.6686 18.3392 24.2513 18.9123 25.0918C19.1225 25.3784 19.2275 25.6076 19.2275 25.7795C19.2275 25.9515 19.132 26.0947 18.941 26.2094C18.8837 26.2476 18.8072 26.2667 18.7117 26.2667C18.578 26.2667 18.4634 26.1807 18.3679 26.0088C18.2915 25.8559 18.2341 25.7509 18.1959 25.6936C17.7948 25.025 17.1548 24.5474 16.2761 24.2608C14.4612 23.6686 12.8661 23.3725 11.4907 23.3725C10.4782 23.3725 9.53259 23.5062 8.65383 23.7737C6.83902 24.2895 5.32986 24.8148 4.12635 25.3497C2.92284 25.8846 1.8435 26.6392 0.888336 27.6135C0.639993 27.8618 0.420304 27.9287 0.229271 27.814ZM13.3302 22.8281C13.0436 22.9427 12.7762 23 12.5279 23C12.1458 23 11.8401 22.8854 11.6109 22.6561C11.3817 22.4269 11.267 22.1212 11.267 21.7392C11.267 21.6437 11.2861 21.4813 11.3243 21.252C11.9739 18.6349 13.2729 16.1515 15.2214 13.8018C15.4698 13.5152 15.6703 13.3719 15.8232 13.3719C15.9569 13.3719 16.0811 13.4483 16.1957 13.6012C16.2721 13.6776 16.3103 13.754 16.3103 13.8304C16.3103 13.945 16.2434 14.0692 16.1097 14.2029C15.976 14.3175 15.89 14.394 15.8518 14.4322C14.2663 16.1706 13.0245 18.4534 12.1267 21.2807C12.0885 21.4335 12.0694 21.5386 12.0694 21.5959C12.0694 21.806 12.1458 21.9589 12.2986 22.0544C12.3941 22.1308 12.4992 22.169 12.6138 22.169C12.7284 22.169 12.9195 22.1021 13.1869 21.9684C14.6579 21.147 15.9282 19.9912 16.998 18.5012C17.2082 18.2146 17.3896 17.9663 17.5425 17.7561C17.7144 17.5269 17.8577 17.3359 17.9723 17.183C18.5645 16.3998 19.0516 15.7407 19.4337 15.2058C19.8158 14.6519 20.1596 14.0883 20.4653 13.5152C20.4844 13.477 20.5226 13.4006 20.5799 13.286C20.6563 13.1522 20.7327 13.0472 20.8091 12.9708C20.8856 12.8943 20.9715 12.8561 21.067 12.8561C21.1625 12.8561 21.239 12.8752 21.2963 12.9134C21.4682 13.009 21.5542 13.1331 21.5542 13.286C21.5542 13.4197 21.4969 13.5725 21.3822 13.7444C21.2676 13.8973 21.2008 13.9832 21.1817 14.0023C20.1501 15.6834 19.3477 17.2977 18.7746 18.845C18.6791 19.1316 18.5836 19.4277 18.4881 19.7333C18.4117 20.039 18.3735 20.3255 18.3735 20.593C18.3735 21.2616 18.6123 21.5959 19.0898 21.5959C19.2427 21.5959 19.4433 21.5481 19.6916 21.4526C20.2074 21.2043 20.8187 20.7267 21.5255 20.0199L23.0442 18.4725C24.7253 16.7532 25.7378 15.7216 26.0817 15.3778C26.139 15.3205 26.2249 15.2154 26.3395 15.0626C26.4733 14.9097 26.607 14.8333 26.7407 14.8333C26.8744 14.8333 26.9891 14.8906 27.0846 15.0053C27.161 15.0817 27.1992 15.1676 27.1992 15.2632C27.1992 15.3778 27.1228 15.5019 26.97 15.6357C26.8362 15.7694 26.7407 15.8649 26.6834 15.9222L22.1559 20.5643C21.4873 21.2712 20.8473 21.7869 20.236 22.1117C19.8731 22.3218 19.5006 22.4269 19.1185 22.4269C18.7746 22.4269 18.4785 22.3409 18.2302 22.169C17.9245 21.978 17.724 21.7392 17.6284 21.4526C17.552 21.147 17.5329 20.7936 17.5711 20.3924C17.5902 20.2396 17.6475 19.7524 17.7431 18.931C16.6733 20.2682 15.6512 21.2903 14.677 21.9971C14.123 22.3982 13.6741 22.6752 13.3302 22.8281ZM37.3661 22.7708C37.0605 22.9236 36.8026 23 36.5924 23C36.325 23 36.1148 22.8949 35.962 22.6848C35.8283 22.4747 35.7614 22.1881 35.7614 21.8251C35.7614 21.5004 35.7996 21.1947 35.8761 20.9082C35.9716 20.6216 36.1148 20.2491 36.3059 19.7906C36.8981 18.3961 37.8819 16.4858 39.2573 14.0596L39.7445 13.2C39.9737 12.7988 40.1456 12.4454 40.2603 12.1398C40.3749 11.815 40.4131 11.4616 40.3749 11.0795C40.0692 11.1368 39.84 11.2419 39.6872 11.3947C39.5534 11.5476 39.372 11.7864 39.1427 12.1111L37.2515 14.862C36.411 16.0846 35.771 17.0016 35.3316 17.6129C34.7967 18.3388 34.3382 18.9214 33.9562 19.3608C33.5932 19.7811 33.1538 20.1536 32.638 20.4784C32.4852 20.593 32.3228 20.6981 32.1509 20.7936C31.979 20.87 31.8071 20.9082 31.6351 20.9082C31.4632 20.9082 31.2817 20.8413 31.0907 20.7076C30.8232 20.4975 30.6895 20.1823 30.6895 19.762C30.6895 19.571 30.7182 19.3608 30.7755 19.1316C30.871 18.654 31.0143 18.2051 31.2053 17.7848C31.3963 17.3645 31.6829 16.801 32.0649 16.0942L32.6094 15.0626C33.0679 14.2411 33.4499 13.5248 33.7556 12.9134C34.0612 12.283 34.3191 11.6431 34.5293 10.9936C34.3191 11.0509 34.1472 11.1368 34.0135 11.2515C33.8989 11.347 33.7938 11.4616 33.6983 11.5953C33.6028 11.7099 33.5359 11.7959 33.4977 11.8532C32.1032 13.477 30.871 15.1199 29.8012 16.7819C29.0562 17.9281 28.187 18.8928 27.1936 19.676C26.8688 19.9435 26.5632 20.0772 26.2766 20.0772C26.1238 20.0772 25.971 20.039 25.8182 19.9626C25.4361 19.7333 25.2451 19.3704 25.2451 18.8737C25.2451 18.2815 25.3501 17.6988 25.5603 17.1257C26.4008 14.8333 27.3942 12.9612 28.5404 11.5094C28.5595 11.4711 28.6072 11.3947 28.6837 11.2801C28.7792 11.1464 28.8651 11.0413 28.9416 10.9649C29.0371 10.8885 29.1326 10.8503 29.2281 10.8503C29.3236 10.8503 29.4191 10.8885 29.5147 10.9649C29.6293 11.0604 29.6866 11.1655 29.6866 11.2801C29.6866 11.3947 29.6197 11.5189 29.486 11.6526C29.3523 11.7864 29.2663 11.8819 29.2281 11.9392C28.6741 12.6651 28.1774 13.4483 27.738 14.2889C27.3178 15.1294 26.8879 16.0846 26.4486 17.1544C26.2957 17.4982 26.2098 17.7752 26.1907 17.9854C26.1716 18.0809 26.1429 18.2051 26.1047 18.3579C26.0665 18.5107 26.0474 18.6349 26.0474 18.7304C26.0474 18.9214 26.1238 19.0552 26.2766 19.1316C26.3913 19.1889 26.4963 19.1889 26.5918 19.1316C26.7065 19.0743 26.8115 18.9883 26.9071 18.8737C27.0217 18.74 27.1172 18.6349 27.1936 18.5585C27.9004 17.9281 28.6837 16.9729 29.5433 15.693C30.6895 13.9546 31.9694 12.3021 33.3831 10.7357C33.6314 10.4491 33.8416 10.2294 34.0135 10.0766C34.1854 9.92378 34.3764 9.84737 34.5866 9.84737C34.7012 9.84737 34.8254 9.88557 34.9591 9.96199C35.2648 10.1339 35.4176 10.3918 35.4176 10.7357C35.4176 10.9267 35.3698 11.1464 35.2743 11.3947C35.1979 11.624 35.1501 11.7577 35.131 11.7959C34.6917 12.8848 34.0135 14.2602 33.0965 15.9222C33.0583 16.0177 32.8959 16.3234 32.6094 16.8392C32.3419 17.3359 32.1318 17.7561 31.979 18.1C31.8262 18.4439 31.702 18.7973 31.6065 19.1602C31.5492 19.4468 31.5205 19.5996 31.5205 19.6187C31.5205 19.7333 31.5587 19.8193 31.6351 19.8766C31.7306 19.9339 31.8071 19.9626 31.8644 19.9626C31.9408 19.9626 32.0267 19.9244 32.1223 19.848C32.2369 19.7524 32.3228 19.6856 32.3802 19.6474C32.9341 19.2462 33.469 18.6922 33.9848 17.9854C35.1501 16.4762 36.2677 14.8811 37.3375 13.2C37.7959 12.4741 38.1876 11.901 38.5123 11.4807C38.8371 11.0413 39.2382 10.6688 39.7158 10.3632C40.0024 10.1912 40.2603 10.1053 40.4895 10.1053C40.7187 10.1053 40.9002 10.2103 41.034 10.4205C41.1677 10.6115 41.2345 10.9076 41.2345 11.3088C41.2345 11.9583 40.9957 12.6938 40.5182 13.5152L39.8304 14.7474C38.5696 17.0016 37.6813 18.7209 37.1655 19.9053C37.1082 20.0199 37.0318 20.2014 36.9363 20.4497C36.8408 20.6789 36.7644 20.8986 36.7071 21.1088C36.6497 21.2998 36.6211 21.5004 36.6211 21.7105C36.6211 21.8825 36.6306 22.0162 36.6497 22.1117C37.1082 21.9589 37.5094 21.7392 37.8533 21.4526C38.2162 21.147 38.5983 20.7649 38.9994 20.3064C39.3815 19.848 40.757 18.3101 43.1258 15.693C43.355 15.4255 43.5269 15.2441 43.6416 15.1485C43.6607 15.1294 43.718 15.0721 43.8135 14.9766C43.9281 14.862 44.0427 14.8047 44.1573 14.8047C44.2529 14.8047 44.3484 14.8524 44.4439 14.948C44.5203 15.0244 44.5585 15.1199 44.5585 15.2345C44.5585 15.33 44.5108 15.4351 44.4152 15.5497C44.3197 15.6452 44.2529 15.7121 44.2147 15.7503C44.0427 15.9413 43.8039 16.1992 43.4983 16.524C43.2117 16.8487 42.8679 17.2404 42.4667 17.6988L39.3433 21.1661C38.6747 21.892 38.0156 22.4269 37.3661 22.7708ZM45.6622 12.8848C45.5094 12.8848 45.3852 12.8275 45.2897 12.7129C45.1941 12.5982 45.1464 12.4836 45.1464 12.369C45.1464 12.2544 45.1941 12.1493 45.2897 12.0538C45.3852 11.9392 45.5094 11.8819 45.6622 11.8819C45.7959 11.8819 45.901 11.9392 45.9774 12.0538C46.0729 12.1493 46.1207 12.2544 46.1207 12.369C46.1207 12.4836 46.0825 12.5982 46.006 12.7129C45.9296 12.8275 45.815 12.8848 45.6622 12.8848ZM44.344 22.3409C43.8665 22.6084 43.4271 22.7421 43.0259 22.7421C42.6056 22.7421 42.2713 22.5797 42.023 22.255C41.7556 21.9302 41.6027 21.4717 41.5645 20.8795C41.5836 19.5423 41.9657 18.2146 42.7107 16.8965C42.9973 16.3616 43.4462 15.5784 44.0575 14.5468L44.6593 13.4865C44.7739 13.2955 44.8694 13.1713 44.9458 13.114C45.0222 13.0376 45.1368 13.0472 45.2897 13.1427C45.4616 13.2191 45.5476 13.3337 45.5476 13.4865C45.5476 13.5821 45.4902 13.7444 45.3756 13.9737C44.5351 15.3873 43.9142 16.4571 43.5131 17.183C42.7871 18.5012 42.4242 19.7429 42.4242 20.9082C42.4242 21.6341 42.663 21.9971 43.1405 21.9971C43.8474 21.9971 45.1177 21.147 46.9517 19.4468C47.6776 18.7973 48.6996 17.7561 50.0177 16.3234L51.078 15.1772C51.1162 15.139 51.1735 15.0721 51.2499 14.9766C51.3263 14.8811 51.4027 14.8238 51.4791 14.8047C51.5747 14.7665 51.6702 14.7856 51.7657 14.862C51.8994 14.9766 51.9663 15.0912 51.9663 15.2058C51.9663 15.3778 51.8899 15.5402 51.737 15.693L50.7341 16.8105C49.4542 18.2051 48.3557 19.3226 47.4388 20.1632C46.5218 21.0037 45.4902 21.7296 44.344 22.3409ZM57.2027 22.6275C56.878 22.8758 56.5628 23 56.2571 23C55.8751 23 55.5694 22.8185 55.3402 22.4556C55.1109 22.0926 54.9963 21.5864 54.9963 20.9368C54.9963 20.3064 55.13 19.5423 55.3975 18.6444C55.6076 17.8612 55.8655 17.0971 56.1712 16.352C56.4768 15.607 56.9257 14.5754 57.518 13.2573C57.155 13.563 56.8589 13.8686 56.6296 14.1743C56.4004 14.4608 56.1998 14.7378 56.0279 15.0053C55.8751 15.2727 55.77 15.4446 55.7127 15.5211L55.0536 16.5813C54.1749 17.9949 53.4967 19.0361 53.0191 19.7047C52.3505 20.6789 51.4909 21.4622 50.4402 22.0544C50.1727 22.1881 49.9817 22.255 49.8671 22.255C49.6378 22.255 49.4659 22.1499 49.3513 21.9398C49.2176 21.7296 49.1507 21.4335 49.1507 21.0515C49.1507 20.7649 49.1889 20.4593 49.2653 20.1345C49.3417 19.8097 49.3895 19.5996 49.4086 19.5041C49.5614 18.9119 49.7525 18.3292 49.9817 17.7561C50.23 17.183 50.5357 16.5144 50.8987 15.7503C51.4335 14.6041 51.8061 13.7349 52.0162 13.1427C52.1308 12.7797 52.3123 12.5982 52.5606 12.5982C52.6371 12.5982 52.723 12.6269 52.8185 12.6842C52.9905 12.7606 53.0764 12.8848 53.0764 13.0567C53.0764 13.1522 53.0096 13.3337 52.8758 13.6012L52.532 14.3175C51.9971 15.3109 51.5482 16.2088 51.1852 17.0111C50.8413 17.7943 50.5548 18.5967 50.3256 19.4181C50.3064 19.5136 50.2491 19.7142 50.1536 20.0199C50.0772 20.3064 50.039 20.593 50.039 20.8795C50.039 21.0706 50.0486 21.2138 50.0677 21.3094C51.0992 20.6981 51.9875 19.8288 52.7326 18.7018L55.8846 13.7731C56.3813 13.009 56.9831 12.4263 57.6899 12.0251C57.8809 11.9105 58.0337 11.8532 58.1484 11.8532C58.2248 11.8532 58.3298 11.901 58.4636 11.9965C58.6164 12.1302 58.6928 12.2926 58.6928 12.4836C58.6928 12.5218 58.6737 12.6173 58.6355 12.7702C58.5209 13.0949 58.3107 13.5821 58.0051 14.2316C57.1072 16.0846 56.4577 17.8039 56.0565 19.3895C55.8846 20.1536 55.8082 20.784 55.8273 21.2807C55.8464 21.5099 55.8751 21.6914 55.9133 21.8251C55.9706 21.9589 56.0757 22.0544 56.2285 22.1117C56.7825 22.2645 58.4063 20.4975 61.0998 16.8105C61.3482 16.4667 61.8257 15.8554 62.5326 14.9766C62.609 14.862 62.7236 14.8047 62.8764 14.8047C62.9528 14.8047 63.0293 14.8333 63.1057 14.8906C63.2012 14.9671 63.2489 15.0626 63.2489 15.1772C63.2489 15.2918 63.2107 15.3873 63.1343 15.4637C62.9433 15.7121 62.7714 15.9509 62.6185 16.1801C62.4848 16.3903 62.3511 16.5813 62.2174 16.7532C61.2431 18.1287 60.3739 19.2844 59.6098 20.2205C58.8647 21.1565 58.0624 21.9589 57.2027 22.6275ZM64.2105 22.3409C63.4272 22.7612 62.7013 22.9713 62.0327 22.9713C61.345 22.9713 60.8005 22.7421 60.3993 22.2836C59.9982 21.806 59.7976 21.147 59.7976 20.3064C59.7976 19.676 59.874 19.1316 60.0268 18.6731C60.1797 18.1955 60.4089 17.7179 60.7145 17.2404C61.8225 15.5593 63.0643 14.3271 64.4397 13.5439C65.1656 13.1045 65.882 12.8848 66.5888 12.8848C67.2765 12.8848 67.8019 13.0949 68.1648 13.5152C68.375 13.7444 68.48 14.117 68.48 14.6327C68.48 15.1103 68.375 15.607 68.1648 16.1228C67.9738 16.6386 67.7064 17.0684 67.3625 17.4123C67.3243 17.4505 67.2383 17.546 67.1046 17.6988C66.9709 17.8326 66.8372 17.8994 66.7034 17.8994C66.627 17.8994 66.522 17.8517 66.3882 17.7561C66.2736 17.6415 66.2163 17.546 66.2163 17.4696C66.2163 17.355 66.2832 17.2404 66.4169 17.1257C66.5697 17.0111 66.6748 16.9156 66.7321 16.8392C66.7703 16.801 66.8658 16.6768 67.0186 16.4667C67.1715 16.2565 67.2765 16.0559 67.3338 15.8649C67.3721 15.7694 67.4389 15.607 67.5344 15.3778C67.6491 15.1294 67.7064 14.9002 67.7064 14.6901C67.7064 14.4608 67.6204 14.2602 67.4485 14.0883C67.181 13.8209 66.8754 13.6871 66.5315 13.6871C66.2832 13.6871 65.9298 13.7827 65.4713 13.9737C63.2744 15.0244 61.727 16.7055 60.8292 19.017C60.7145 19.3035 60.6572 19.6092 60.6572 19.9339C60.6572 20.1823 60.6859 20.4402 60.7432 20.7076C61.0106 21.7201 61.4596 22.2263 62.09 22.2263C62.3192 22.2263 62.5771 22.169 62.8637 22.0544C64.22 21.5195 65.5381 20.6503 66.8181 19.4468C67.544 18.7973 68.566 17.7561 69.8841 16.3234L70.9444 15.1772C70.9826 15.139 71.0399 15.0721 71.1163 14.9766C71.1927 14.8811 71.2691 14.8238 71.3455 14.8047C71.4411 14.7665 71.5366 14.7856 71.6321 14.862C71.7658 14.9766 71.8327 15.0912 71.8327 15.2058C71.8327 15.3778 71.7563 15.5402 71.6034 15.693L70.6005 16.8105C69.3206 18.2051 68.2221 19.3226 67.3052 20.1632C66.3882 21.0037 65.3567 21.7296 64.2105 22.3409ZM71.168 22.9713C71.0725 22.9904 70.9292 23 70.7382 23C69.4201 23 68.761 22.2645 68.761 20.7936C68.7801 19.2844 69.1431 17.9281 69.8499 16.7246C70.5758 15.5211 71.5787 14.3844 72.8587 13.3146C72.9924 13.2 73.2121 13.0854 73.5177 12.9708C73.6323 12.9326 73.7279 12.9134 73.8043 12.9134C74.0144 12.9134 74.1481 13.0185 74.2054 13.2287C74.2245 13.2669 74.2341 13.3337 74.2341 13.4292C74.2341 13.6776 74.0908 13.8591 73.8043 13.9737C73.0783 14.2411 72.3906 14.7474 71.7411 15.4924C71.0916 16.2374 70.5663 17.0875 70.1651 18.0427C69.7639 18.9979 69.5633 19.8766 69.5633 20.6789C69.5633 21.6723 69.955 22.169 70.7382 22.169C71.6934 22.169 72.6581 21.8251 73.6323 21.1374C74.6066 20.4115 75.4472 19.5041 76.154 18.4152C76.4023 18.0331 76.5265 17.7561 76.5265 17.5842C76.5265 17.3168 76.2591 17.1066 75.7242 16.9538C75.3994 16.8583 75.1415 16.6481 74.9505 16.3234C74.7785 15.9795 74.6926 15.5879 74.6926 15.1485C74.6926 14.862 74.7403 14.5468 74.8359 14.2029C74.9887 13.7253 75.1797 13.3528 75.409 13.0854C75.6382 12.8179 75.9725 12.6842 76.4119 12.6842C76.9086 12.6842 77.3288 12.8466 77.6727 13.1713C78.0166 13.477 78.198 13.8686 78.2171 14.3462C78.2744 14.9193 78.1885 15.5975 77.9592 16.3807C78.1694 16.2852 78.3891 16.1419 78.6183 15.9509C78.8475 15.7598 79.0672 15.5688 79.2774 15.3778C79.7359 14.9193 80.0988 14.6327 80.3663 14.5181C80.4236 14.499 80.5 14.4704 80.5955 14.4322C80.7101 14.3749 80.8056 14.3462 80.8821 14.3462C81.0158 14.3462 81.1208 14.4226 81.1973 14.5754C81.2737 14.7092 81.1973 14.8906 80.968 15.1199C80.7579 15.3491 80.5382 15.5593 80.309 15.7503C80.0988 15.9413 79.9555 16.0655 79.8791 16.1228C78.9049 16.906 78.1025 17.6224 77.4721 18.2719C76.8608 18.9214 76.259 19.6092 75.6668 20.3351C75.132 20.9655 74.7021 21.4335 74.3774 21.7392C74.0526 22.0448 73.6419 22.3123 73.1452 22.5415C72.6485 22.7517 71.9895 22.8949 71.168 22.9713ZM76.5552 16.352C76.8799 16.352 77.0805 16.2756 77.1569 16.1228C77.2524 15.97 77.3002 15.7503 77.3002 15.4637C77.3193 15.1772 77.3479 14.9862 77.3861 14.8906C77.4817 13.9928 77.1856 13.5439 76.4978 13.5439C76.1158 13.563 75.877 13.6871 75.7815 13.9164C75.686 14.1456 75.6191 14.4895 75.5809 14.948C75.5427 15.3491 75.6 15.6834 75.7528 15.9509C75.9056 16.2183 76.1731 16.352 76.5552 16.352ZM82.4323 12.8848C82.2795 12.8848 82.1553 12.8275 82.0598 12.7129C81.9643 12.5982 81.9165 12.4836 81.9165 12.369C81.9165 12.2544 81.9643 12.1493 82.0598 12.0538C82.1553 11.9392 82.2795 11.8819 82.4323 11.8819C82.5661 11.8819 82.6711 11.9392 82.7475 12.0538C82.8431 12.1493 82.8908 12.2544 82.8908 12.369C82.8908 12.4836 82.8526 12.5982 82.7762 12.7129C82.6998 12.8275 82.5852 12.8848 82.4323 12.8848ZM81.1142 22.3409C80.6366 22.6084 80.1972 22.7421 79.7961 22.7421C79.3758 22.7421 79.0415 22.5797 78.7932 22.255C78.5257 21.9302 78.3729 21.4717 78.3347 20.8795C78.3538 19.5423 78.7358 18.2146 79.4809 16.8965C79.7674 16.3616 80.2163 15.5784 80.8277 14.5468L81.4294 13.4865C81.544 13.2955 81.6395 13.1713 81.716 13.114C81.7924 13.0376 81.907 13.0472 82.0598 13.1427C82.2317 13.2191 82.3177 13.3337 82.3177 13.4865C82.3177 13.5821 82.2604 13.7444 82.1458 13.9737C81.3052 15.3873 80.6844 16.4571 80.2832 17.183C79.5573 18.5012 79.1943 19.7429 79.1943 20.9082C79.1943 21.6341 79.4331 21.9971 79.9107 21.9971C80.6175 21.9971 81.8879 21.147 83.7218 19.4468C84.4477 18.7973 85.4698 17.7561 86.7879 16.3234L87.8481 15.1772C87.8863 15.139 87.9436 15.0721 88.0201 14.9766C88.0965 14.8811 88.1729 14.8238 88.2493 14.8047C88.3448 14.7665 88.4403 14.7856 88.5358 14.862C88.6696 14.9766 88.7364 15.0912 88.7364 15.2058C88.7364 15.3778 88.66 15.5402 88.5072 15.693L87.5043 16.8105C86.2243 18.2051 85.1259 19.3226 84.2089 20.1632C83.292 21.0037 82.2604 21.7296 81.1142 22.3409ZM93.9729 22.6275C93.6481 22.8758 93.3329 23 93.0273 23C92.6452 23 92.3396 22.8185 92.1103 22.4556C91.8811 22.0926 91.7665 21.5864 91.7665 20.9368C91.7665 20.3064 91.9002 19.5423 92.1676 18.6444C92.3778 17.8612 92.6357 17.0971 92.9413 16.352C93.247 15.607 93.6959 14.5754 94.2881 13.2573C93.9251 13.563 93.629 13.8686 93.3998 14.1743C93.1706 14.4608 92.97 14.7378 92.798 15.0053C92.6452 15.2727 92.5401 15.4446 92.4828 15.5211L91.8238 16.5813C90.945 17.9949 90.2669 19.0361 89.7893 19.7047C89.1207 20.6789 88.261 21.4622 87.2103 22.0544C86.9429 22.1881 86.7518 22.255 86.6372 22.255C86.408 22.255 86.2361 22.1499 86.1214 21.9398C85.9877 21.7296 85.9208 21.4335 85.9208 21.0515C85.9208 20.7649 85.9591 20.4593 86.0355 20.1345C86.1119 19.8097 86.1596 19.5996 86.1787 19.5041C86.3316 18.9119 86.5226 18.3292 86.7518 17.7561C87.0002 17.183 87.3058 16.5144 87.6688 15.7503C88.2037 14.6041 88.5762 13.7349 88.7863 13.1427C88.901 12.7797 89.0824 12.5982 89.3308 12.5982C89.4072 12.5982 89.4932 12.6269 89.5887 12.6842C89.7606 12.7606 89.8466 12.8848 89.8466 13.0567C89.8466 13.1522 89.7797 13.3337 89.646 13.6012L89.3021 14.3175C88.7672 15.3109 88.3183 16.2088 87.9554 17.0111C87.6115 17.7943 87.3249 18.5967 87.0957 19.4181C87.0766 19.5136 87.0193 19.7142 86.9238 20.0199C86.8474 20.3064 86.8092 20.593 86.8092 20.8795C86.8092 21.0706 86.8187 21.2138 86.8378 21.3094C87.8694 20.6981 88.7577 19.8288 89.5027 18.7018L92.6548 13.7731C93.1515 13.009 93.7532 12.4263 94.46 12.0251C94.6511 11.9105 94.8039 11.8532 94.9185 11.8532C94.9949 11.8532 95.1 11.901 95.2337 11.9965C95.3865 12.1302 95.463 12.2926 95.463 12.4836C95.463 12.5218 95.4439 12.6173 95.4056 12.7702C95.291 13.0949 95.0809 13.5821 94.7752 14.2316C93.8774 16.0846 93.2279 17.8039 92.8267 19.3895C92.6548 20.1536 92.5784 20.784 92.5975 21.2807C92.6166 21.5099 92.6452 21.6914 92.6834 21.8251C92.7407 21.9589 92.8458 22.0544 92.9986 22.1117C93.5526 22.2645 95.1764 20.4975 97.87 16.8105C98.1183 16.4667 98.5959 15.8554 99.3027 14.9766C99.3791 14.862 99.4938 14.8047 99.6466 14.8047C99.723 14.8047 99.7994 14.8333 99.8758 14.8906C99.9713 14.9671 100.019 15.0626 100.019 15.1772C100.019 15.2918 99.9809 15.3873 99.9045 15.4637C99.7134 15.7121 99.5415 15.9509 99.3887 16.1801C99.255 16.3903 99.1212 16.5813 98.9875 16.7532C98.0132 18.1287 97.144 19.2844 96.3799 20.2205C95.6349 21.1565 94.8325 21.9589 93.9729 22.6275Z" fill="#0D6EFD"/>
</svg>
