<svg width="175" height="70" viewBox="0 0 175 70" fill="none" xmlns="http://www.w3.org/2000/svg">
<path d="M16.8085 57V48.2727H22.5869V49.794H18.6537V51.8736H22.2034V53.3949H18.6537V57H16.8085ZM40.0732 48.2727V57H38.228V48.2727H40.0732ZM63.291 48.2727V57H61.6973L57.9004 51.5071H57.8365V57H55.9913V48.2727H57.6106L61.3777 53.7614H61.4544V48.2727H63.291ZM80.7198 57H78.7425L81.7553 48.2727H84.1332L87.1417 57H85.1644L82.9783 50.267H82.9101L80.7198 57ZM80.5962 53.5696H85.2667V55.0099H80.5962V53.5696ZM109.892 48.2727V57H108.298L104.501 51.5071H104.437V57H102.592V48.2727H104.211L107.978 53.7614H108.055V48.2727H109.892ZM133.517 51.3281H131.65C131.616 51.0866 131.546 50.8722 131.441 50.6847C131.336 50.4943 131.201 50.3324 131.036 50.1989C130.872 50.0653 130.681 49.9631 130.465 49.892C130.252 49.821 130.021 49.7855 129.771 49.7855C129.319 49.7855 128.926 49.8977 128.59 50.1222C128.255 50.3437 127.995 50.6676 127.811 51.0938C127.626 51.517 127.534 52.0312 127.534 52.6364C127.534 53.2585 127.626 53.7812 127.811 54.2045C127.998 54.6278 128.26 54.9474 128.595 55.1634C128.93 55.3793 129.318 55.4872 129.758 55.4872C130.005 55.4872 130.234 55.4545 130.444 55.3892C130.657 55.3239 130.846 55.2287 131.011 55.1037C131.176 54.9759 131.312 54.821 131.42 54.6392C131.531 54.4574 131.608 54.25 131.65 54.017L133.517 54.0256C133.468 54.4261 133.348 54.8125 133.154 55.1847C132.964 55.554 132.707 55.8849 132.383 56.1776C132.062 56.4673 131.679 56.6974 131.233 56.8679C130.789 57.0355 130.288 57.1193 129.728 57.1193C128.95 57.1193 128.254 56.9432 127.64 56.5909C127.029 56.2386 126.546 55.7287 126.191 55.0611C125.839 54.3935 125.663 53.5852 125.663 52.6364C125.663 51.6847 125.842 50.875 126.2 50.2074C126.558 49.5398 127.044 49.0312 127.657 48.6818C128.271 48.3295 128.961 48.1534 129.728 48.1534C130.234 48.1534 130.703 48.2244 131.135 48.3665C131.569 48.5085 131.954 48.7159 132.289 48.9886C132.625 49.2585 132.897 49.5895 133.108 49.9815C133.321 50.3736 133.457 50.8224 133.517 51.3281ZM149.24 57V48.2727H155.12V49.794H151.085V51.8736H154.818V53.3949H151.085V55.4787H155.137V57H149.24Z" fill="#052C65"/>
<path d="M0.399988 48.4C0.133321 48.2333 -1.22094e-05 48.0333 -1.22094e-05 47.8C-1.22094e-05 47.6667 0.0333211 47.5333 0.0999878 47.4C0.166654 47.2667 0.216654 47.1667 0.249988 47.1C0.849988 46.1667 1.91665 45.25 3.44999 44.35C4.58332 43.7167 5.51665 42.7667 6.24999 41.5C7.74999 38.9 9.19999 36.5167 10.6 34.35C13.7333 29.1833 16.1333 25.1333 17.8 22.2C19.4667 19.2333 21.0167 16.0833 22.45 12.75C22.95 11.5167 23.7667 9.7 24.9 7.3C25.0333 7.03333 25.4 6.26666 26 5C26.0667 4.83333 26.2167 4.48333 26.45 3.95C26.7167 3.41666 26.9833 2.95 27.25 2.55C27.3833 2.35 27.5333 2.1 27.7 1.8C27.8667 1.46666 28.0333 1.2 28.2 0.999998C28.3667 0.799999 28.5667 0.699999 28.8 0.699999C29.0333 0.699999 29.2333 0.766665 29.4 0.899997C29.6667 1.06667 29.8 1.25 29.8 1.45C29.8 1.65 29.6333 1.95 29.3 2.35C28.9667 2.71666 28.7667 2.98333 28.7 3.15C28.2667 4.18333 27.7333 5.31667 27.1 6.55L25.45 10C21.4167 19.2333 16.1833 28.8167 9.74999 38.75C9.34999 39.35 8.73332 40.4 7.89999 41.9C10.6 41 12.55 40.3667 13.75 40C15.7833 39.3667 17.8667 39.05 20 39.05C22.7 39.05 25.6 39.5667 28.7 40.6C30.5667 41.1667 32 42.1833 33 43.65C33.3667 44.15 33.55 44.55 33.55 44.85C33.55 45.15 33.3833 45.4 33.05 45.6C32.95 45.6667 32.8167 45.7 32.65 45.7C32.4167 45.7 32.2167 45.55 32.05 45.25C31.9167 44.9833 31.8167 44.8 31.75 44.7C31.05 43.5333 29.9333 42.7 28.4 42.2C25.2333 41.1667 22.45 40.65 20.05 40.65C18.2833 40.65 16.6333 40.8833 15.1 41.35C11.9333 42.25 9.29999 43.1667 7.19999 44.1C5.09999 45.0333 3.21665 46.35 1.54999 48.05C1.11665 48.4833 0.733321 48.6 0.399988 48.4ZM23.2598 39.7C22.7598 39.9 22.2931 40 21.8598 40C21.1931 40 20.6598 39.8 20.2598 39.4C19.8598 39 19.6598 38.4667 19.6598 37.8C19.6598 37.6333 19.6931 37.35 19.7598 36.95C20.8931 32.3833 23.1598 28.05 26.5598 23.95C26.9931 23.45 27.3431 23.2 27.6098 23.2C27.8431 23.2 28.0598 23.3333 28.2598 23.6C28.3931 23.7333 28.4598 23.8667 28.4598 24C28.4598 24.2 28.3431 24.4167 28.1098 24.65C27.8764 24.85 27.7264 24.9833 27.6598 25.05C24.8931 28.0833 22.7264 32.0667 21.1598 37C21.0931 37.2667 21.0598 37.45 21.0598 37.55C21.0598 37.9167 21.1931 38.1833 21.4598 38.35C21.6264 38.4833 21.8098 38.55 22.0098 38.55C22.2098 38.55 22.5431 38.4333 23.0098 38.2C25.5764 36.7667 27.7931 34.75 29.6598 32.15C30.0264 31.65 30.3431 31.2167 30.6098 30.85C30.9098 30.45 31.1598 30.1167 31.3598 29.85C32.3931 28.4833 33.2431 27.3333 33.9098 26.4C34.5764 25.4333 35.1764 24.45 35.7098 23.45C35.7431 23.3833 35.8098 23.25 35.9098 23.05C36.0431 22.8167 36.1764 22.6333 36.3098 22.5C36.4431 22.3667 36.5931 22.3 36.7598 22.3C36.9264 22.3 37.0598 22.3333 37.1598 22.4C37.4598 22.5667 37.6098 22.7833 37.6098 23.05C37.6098 23.2833 37.5098 23.55 37.3098 23.85C37.1098 24.1167 36.9931 24.2667 36.9598 24.3C35.1598 27.2333 33.7598 30.05 32.7598 32.75C32.5931 33.25 32.4264 33.7667 32.2598 34.3C32.1264 34.8333 32.0598 35.3333 32.0598 35.8C32.0598 36.9667 32.4764 37.55 33.3098 37.55C33.5764 37.55 33.9264 37.4667 34.3598 37.3C35.2598 36.8667 36.3264 36.0333 37.5598 34.8L40.2098 32.1C43.1431 29.1 44.9098 27.3 45.5098 26.7C45.6098 26.6 45.7598 26.4167 45.9598 26.15C46.1931 25.8833 46.4264 25.75 46.6598 25.75C46.8931 25.75 47.0931 25.85 47.2598 26.05C47.3931 26.1833 47.4598 26.3333 47.4598 26.5C47.4598 26.7 47.3264 26.9167 47.0598 27.15C46.8264 27.3833 46.6598 27.55 46.5598 27.65L38.6598 35.75C37.4931 36.9833 36.3764 37.8833 35.3098 38.45C34.6764 38.8167 34.0264 39 33.3598 39C32.7598 39 32.2431 38.85 31.8098 38.55C31.2764 38.2167 30.9264 37.8 30.7598 37.3C30.6264 36.7667 30.5931 36.15 30.6598 35.45C30.6931 35.1833 30.7931 34.3333 30.9598 32.9C29.0931 35.2333 27.3098 37.0167 25.6098 38.25C24.6431 38.95 23.8598 39.4333 23.2598 39.7ZM65.2 39.6C64.6667 39.8667 64.2167 40 63.85 40C63.3833 40 63.0167 39.8167 62.75 39.45C62.5167 39.0833 62.4 38.5833 62.4 37.95C62.4 37.3833 62.4667 36.85 62.6 36.35C62.7667 35.85 63.0167 35.2 63.35 34.4C64.3833 31.9667 66.1 28.6333 68.5 24.4L69.35 22.9C69.75 22.2 70.05 21.5833 70.25 21.05C70.45 20.4833 70.5167 19.8667 70.45 19.2C69.9167 19.3 69.5167 19.4833 69.25 19.75C69.0167 20.0167 68.7 20.4333 68.3 21L65 25.8C63.5333 27.9333 62.4167 29.5333 61.65 30.6C60.7167 31.8667 59.9167 32.8833 59.25 33.65C58.6167 34.3833 57.85 35.0333 56.95 35.6C56.6833 35.8 56.4 35.9833 56.1 36.15C55.8 36.2833 55.5 36.35 55.2 36.35C54.9 36.35 54.5833 36.2333 54.25 36C53.7833 35.6333 53.55 35.0833 53.55 34.35C53.55 34.0167 53.6 33.65 53.7 33.25C53.8667 32.4167 54.1167 31.6333 54.45 30.9C54.7833 30.1667 55.2833 29.1833 55.95 27.95L56.9 26.15C57.7 24.7167 58.3667 23.4667 58.9 22.4C59.4333 21.3 59.8833 20.1833 60.25 19.05C59.8833 19.15 59.5833 19.3 59.35 19.5C59.15 19.6667 58.9667 19.8667 58.8 20.1C58.6333 20.3 58.5167 20.45 58.45 20.55C56.0167 23.3833 53.8667 26.25 52 29.15C50.7 31.15 49.1833 32.8333 47.45 34.2C46.8833 34.6667 46.35 34.9 45.85 34.9C45.5833 34.9 45.3167 34.8333 45.05 34.7C44.3833 34.3 44.05 33.6667 44.05 32.8C44.05 31.7667 44.2333 30.75 44.6 29.75C46.0667 25.75 47.8 22.4833 49.8 19.95C49.8333 19.8833 49.9167 19.75 50.05 19.55C50.2167 19.3167 50.3667 19.1333 50.5 19C50.6667 18.8667 50.8333 18.8 51 18.8C51.1667 18.8 51.3333 18.8667 51.5 19C51.7 19.1667 51.8 19.35 51.8 19.55C51.8 19.75 51.6833 19.9667 51.45 20.2C51.2167 20.4333 51.0667 20.6 51 20.7C50.0333 21.9667 49.1667 23.3333 48.4 24.8C47.6667 26.2667 46.9167 27.9333 46.15 29.8C45.8833 30.4 45.7333 30.8833 45.7 31.25C45.6667 31.4167 45.6167 31.6333 45.55 31.9C45.4833 32.1667 45.45 32.3833 45.45 32.55C45.45 32.8833 45.5833 33.1167 45.85 33.25C46.05 33.35 46.2333 33.35 46.4 33.25C46.6 33.15 46.7833 33 46.95 32.8C47.15 32.5667 47.3167 32.3833 47.45 32.25C48.6833 31.15 50.05 29.4833 51.55 27.25C53.55 24.2167 55.7833 21.3333 58.25 18.6C58.6833 18.1 59.05 17.7167 59.35 17.45C59.65 17.1833 59.9833 17.05 60.35 17.05C60.55 17.05 60.7667 17.1167 61 17.25C61.5333 17.55 61.8 18 61.8 18.6C61.8 18.9333 61.7167 19.3167 61.55 19.75C61.4167 20.15 61.3333 20.3833 61.3 20.45C60.5333 22.35 59.35 24.75 57.75 27.65C57.6833 27.8167 57.4 28.35 56.9 29.25C56.4333 30.1167 56.0667 30.85 55.8 31.45C55.5333 32.05 55.3167 32.6667 55.15 33.3C55.05 33.8 55 34.0667 55 34.1C55 34.3 55.0667 34.45 55.2 34.55C55.3667 34.65 55.5 34.7 55.6 34.7C55.7333 34.7 55.8833 34.6333 56.05 34.5C56.25 34.3333 56.4 34.2167 56.5 34.15C57.4667 33.45 58.4 32.4833 59.3 31.25C61.3333 28.6167 63.2833 25.8333 65.15 22.9C65.95 21.6333 66.6333 20.6333 67.2 19.9C67.7667 19.1333 68.4667 18.4833 69.3 17.95C69.8 17.65 70.25 17.5 70.65 17.5C71.05 17.5 71.3667 17.6833 71.6 18.05C71.8333 18.3833 71.95 18.9 71.95 19.6C71.95 20.7333 71.5333 22.0167 70.7 23.45L69.5 25.6C67.3 29.5333 65.75 32.5333 64.85 34.6C64.75 34.8 64.6167 35.1167 64.45 35.55C64.2833 35.95 64.15 36.3333 64.05 36.7C63.95 37.0333 63.9 37.3833 63.9 37.75C63.9 38.05 63.9167 38.2833 63.95 38.45C64.75 38.1833 65.45 37.8 66.05 37.3C66.6833 36.7667 67.35 36.1 68.05 35.3C68.7167 34.5 71.1167 31.8167 75.25 27.25C75.65 26.7833 75.95 26.4667 76.15 26.3C76.1833 26.2667 76.2833 26.1667 76.45 26C76.65 25.8 76.85 25.7 77.05 25.7C77.2167 25.7 77.3833 25.7833 77.55 25.95C77.6833 26.0833 77.75 26.25 77.75 26.45C77.75 26.6167 77.6667 26.8 77.5 27C77.3333 27.1667 77.2167 27.2833 77.15 27.35C76.85 27.6833 76.4333 28.1333 75.9 28.7C75.4 29.2667 74.8 29.95 74.1 30.75L68.65 36.8C67.4833 38.0667 66.3333 39 65.2 39.6ZM79.6758 22.35C79.4091 22.35 79.1924 22.25 79.0258 22.05C78.8591 21.85 78.7758 21.65 78.7758 21.45C78.7758 21.25 78.8591 21.0667 79.0258 20.9C79.1924 20.7 79.4091 20.6 79.6758 20.6C79.9091 20.6 80.0924 20.7 80.2258 20.9C80.3924 21.0667 80.4758 21.25 80.4758 21.45C80.4758 21.65 80.4091 21.85 80.2758 22.05C80.1424 22.25 79.9424 22.35 79.6758 22.35ZM77.3758 38.85C76.5424 39.3167 75.7758 39.55 75.0758 39.55C74.3424 39.55 73.7591 39.2667 73.3258 38.7C72.8591 38.1333 72.5924 37.3333 72.5258 36.3C72.5591 33.9667 73.2258 31.65 74.5258 29.35C75.0258 28.4167 75.8091 27.05 76.8758 25.25L77.9258 23.4C78.1258 23.0667 78.2924 22.85 78.4258 22.75C78.5591 22.6167 78.7591 22.6333 79.0258 22.8C79.3258 22.9333 79.4758 23.1333 79.4758 23.4C79.4758 23.5667 79.3758 23.85 79.1758 24.25C77.7091 26.7167 76.6258 28.5833 75.9258 29.85C74.6591 32.15 74.0258 34.3167 74.0258 36.35C74.0258 37.6167 74.4424 38.25 75.2758 38.25C76.5091 38.25 78.7258 36.7667 81.9258 33.8C83.1924 32.6667 84.9758 30.85 87.2758 28.35L89.1258 26.35C89.1924 26.2833 89.2924 26.1667 89.4258 26C89.5591 25.8333 89.6924 25.7333 89.8258 25.7C89.9924 25.6333 90.1591 25.6667 90.3258 25.8C90.5591 26 90.6758 26.2 90.6758 26.4C90.6758 26.7 90.5424 26.9833 90.2758 27.25L88.5258 29.2C86.2924 31.6333 84.3758 33.5833 82.7758 35.05C81.1758 36.5167 79.3758 37.7833 77.3758 38.85ZM99.8129 39.35C99.2462 39.7833 98.6962 40 98.1629 40C97.4962 40 96.9629 39.6833 96.5629 39.05C96.1629 38.4167 95.9629 37.5333 95.9629 36.4C95.9629 35.3 96.1962 33.9667 96.6629 32.4C97.0295 31.0333 97.4795 29.7 98.0129 28.4C98.5462 27.1 99.3295 25.3 100.363 23C99.7295 23.5333 99.2129 24.0667 98.8129 24.6C98.4129 25.1 98.0629 25.5833 97.7629 26.05C97.4962 26.5167 97.3129 26.8167 97.2129 26.95L96.0629 28.8C94.5295 31.2667 93.3462 33.0833 92.5129 34.25C91.3462 35.95 89.8462 37.3167 88.0129 38.35C87.5462 38.5833 87.2129 38.7 87.0129 38.7C86.6129 38.7 86.3129 38.5167 86.1129 38.15C85.8795 37.7833 85.7629 37.2667 85.7629 36.6C85.7629 36.1 85.8295 35.5667 85.9629 35C86.0962 34.4333 86.1795 34.0667 86.2129 33.9C86.4795 32.8667 86.8129 31.85 87.2129 30.85C87.6462 29.85 88.1795 28.6833 88.8129 27.35C89.7462 25.35 90.3962 23.8333 90.7629 22.8C90.9629 22.1667 91.2795 21.85 91.7129 21.85C91.8462 21.85 91.9962 21.9 92.1629 22C92.4629 22.1333 92.6129 22.35 92.6129 22.65C92.6129 22.8167 92.4962 23.1333 92.2629 23.6L91.6629 24.85C90.7295 26.5833 89.9462 28.15 89.3129 29.55C88.7129 30.9167 88.2129 32.3167 87.8129 33.75C87.7795 33.9167 87.6795 34.2667 87.5129 34.8C87.3795 35.3 87.3129 35.8 87.3129 36.3C87.3129 36.6333 87.3295 36.8833 87.3629 37.05C89.1629 35.9833 90.7129 34.4667 92.0129 32.5L97.5129 23.9C98.3795 22.5667 99.4295 21.55 100.663 20.85C100.996 20.65 101.263 20.55 101.463 20.55C101.596 20.55 101.78 20.6333 102.013 20.8C102.28 21.0333 102.413 21.3167 102.413 21.65C102.413 21.7167 102.38 21.8833 102.313 22.15C102.113 22.7167 101.746 23.5667 101.213 24.7C99.6462 27.9333 98.5129 30.9333 97.8129 33.7C97.5129 35.0333 97.3795 36.1333 97.4129 37C97.4462 37.4 97.4962 37.7167 97.5629 37.95C97.6629 38.1833 97.8462 38.35 98.1129 38.45C99.0795 38.7167 101.913 35.6333 106.613 29.2C107.046 28.6 107.88 27.5333 109.113 26C109.246 25.8 109.446 25.7 109.713 25.7C109.846 25.7 109.98 25.75 110.113 25.85C110.28 25.9833 110.363 26.15 110.363 26.35C110.363 26.55 110.296 26.7167 110.163 26.85C109.83 27.2833 109.53 27.7 109.263 28.1C109.03 28.4667 108.796 28.8 108.563 29.1C106.863 31.5 105.346 33.5167 104.013 35.15C102.713 36.7833 101.313 38.1833 99.8129 39.35ZM112.041 38.85C110.674 39.5833 109.407 39.95 108.241 39.95C107.041 39.95 106.091 39.55 105.391 38.75C104.691 37.9167 104.341 36.7667 104.341 35.3C104.341 34.2 104.474 33.25 104.741 32.45C105.007 31.6167 105.407 30.7833 105.941 29.95C107.874 27.0167 110.041 24.8667 112.441 23.5C113.707 22.7333 114.957 22.35 116.191 22.35C117.391 22.35 118.307 22.7167 118.941 23.45C119.307 23.85 119.491 24.5 119.491 25.4C119.491 26.2333 119.307 27.1 118.941 28C118.607 28.9 118.141 29.65 117.541 30.25C117.474 30.3167 117.324 30.4833 117.091 30.75C116.857 30.9833 116.624 31.1 116.391 31.1C116.257 31.1 116.074 31.0167 115.841 30.85C115.641 30.65 115.541 30.4833 115.541 30.35C115.541 30.15 115.657 29.95 115.891 29.75C116.157 29.55 116.341 29.3833 116.441 29.25C116.507 29.1833 116.674 28.9667 116.941 28.6C117.207 28.2333 117.391 27.8833 117.491 27.55C117.557 27.3833 117.674 27.1 117.841 26.7C118.041 26.2667 118.141 25.8667 118.141 25.5C118.141 25.1 117.991 24.75 117.691 24.45C117.224 23.9833 116.691 23.75 116.091 23.75C115.657 23.75 115.041 23.9167 114.241 24.25C110.407 26.0833 107.707 29.0167 106.141 33.05C105.941 33.55 105.841 34.0833 105.841 34.65C105.841 35.0833 105.891 35.5333 105.991 36C106.457 37.7667 107.241 38.65 108.341 38.65C108.741 38.65 109.191 38.55 109.691 38.35C112.057 37.4167 114.357 35.9 116.591 33.8C117.857 32.6667 119.641 30.85 121.941 28.35L123.791 26.35C123.857 26.2833 123.957 26.1667 124.091 26C124.224 25.8333 124.357 25.7333 124.491 25.7C124.657 25.6333 124.824 25.6667 124.991 25.8C125.224 26 125.341 26.2 125.341 26.4C125.341 26.7 125.207 26.9833 124.941 27.25L123.191 29.2C120.957 31.6333 119.041 33.5833 117.441 35.05C115.841 36.5167 114.041 37.7833 112.041 38.85ZM124.181 39.95C124.014 39.9833 123.764 40 123.431 40C121.131 40 119.981 38.7167 119.981 36.15C120.014 33.5167 120.648 31.15 121.881 29.05C123.148 26.95 124.898 24.9667 127.131 23.1C127.364 22.9 127.748 22.7 128.281 22.5C128.481 22.4333 128.648 22.4 128.781 22.4C129.148 22.4 129.381 22.5833 129.481 22.95C129.514 23.0167 129.531 23.1333 129.531 23.3C129.531 23.7333 129.281 24.05 128.781 24.25C127.514 24.7167 126.314 25.6 125.181 26.9C124.048 28.2 123.131 29.6833 122.431 31.35C121.731 33.0167 121.381 34.55 121.381 35.95C121.381 37.6833 122.064 38.55 123.431 38.55C125.098 38.55 126.781 37.95 128.481 36.75C130.181 35.4833 131.648 33.9 132.881 32C133.314 31.3333 133.531 30.85 133.531 30.55C133.531 30.0833 133.064 29.7167 132.131 29.45C131.564 29.2833 131.114 28.9167 130.781 28.35C130.481 27.75 130.331 27.0667 130.331 26.3C130.331 25.8 130.414 25.25 130.581 24.65C130.848 23.8167 131.181 23.1667 131.581 22.7C131.981 22.2333 132.564 22 133.331 22C134.198 22 134.931 22.2833 135.531 22.85C136.131 23.3833 136.448 24.0667 136.481 24.9C136.581 25.9 136.431 27.0833 136.031 28.45C136.398 28.2833 136.781 28.0333 137.181 27.7C137.581 27.3667 137.964 27.0333 138.331 26.7C139.131 25.9 139.764 25.4 140.231 25.2C140.331 25.1667 140.464 25.1167 140.631 25.05C140.831 24.95 140.998 24.9 141.131 24.9C141.364 24.9 141.548 25.0333 141.681 25.3C141.814 25.5333 141.681 25.85 141.281 26.25C140.914 26.65 140.531 27.0167 140.131 27.35C139.764 27.6833 139.514 27.9 139.381 28C137.681 29.3667 136.281 30.6167 135.181 31.75C134.114 32.8833 133.064 34.0833 132.031 35.35C131.098 36.45 130.348 37.2667 129.781 37.8C129.214 38.3333 128.498 38.8 127.631 39.2C126.764 39.5667 125.614 39.8167 124.181 39.95ZM133.581 28.4C134.148 28.4 134.498 28.2667 134.631 28C134.798 27.7333 134.881 27.35 134.881 26.85C134.914 26.35 134.964 26.0167 135.031 25.85C135.198 24.2833 134.681 23.5 133.481 23.5C132.814 23.5333 132.398 23.75 132.231 24.15C132.064 24.55 131.948 25.15 131.881 25.95C131.814 26.65 131.914 27.2333 132.181 27.7C132.448 28.1667 132.914 28.4 133.581 28.4ZM143.836 22.35C143.569 22.35 143.353 22.25 143.186 22.05C143.019 21.85 142.936 21.65 142.936 21.45C142.936 21.25 143.019 21.0667 143.186 20.9C143.353 20.7 143.569 20.6 143.836 20.6C144.069 20.6 144.253 20.7 144.386 20.9C144.553 21.0667 144.636 21.25 144.636 21.45C144.636 21.65 144.569 21.85 144.436 22.05C144.303 22.25 144.103 22.35 143.836 22.35ZM141.536 38.85C140.703 39.3167 139.936 39.55 139.236 39.55C138.503 39.55 137.919 39.2667 137.486 38.7C137.019 38.1333 136.753 37.3333 136.686 36.3C136.719 33.9667 137.386 31.65 138.686 29.35C139.186 28.4167 139.969 27.05 141.036 25.25L142.086 23.4C142.286 23.0667 142.453 22.85 142.586 22.75C142.719 22.6167 142.919 22.6333 143.186 22.8C143.486 22.9333 143.636 23.1333 143.636 23.4C143.636 23.5667 143.536 23.85 143.336 24.25C141.869 26.7167 140.786 28.5833 140.086 29.85C138.819 32.15 138.186 34.3167 138.186 36.35C138.186 37.6167 138.603 38.25 139.436 38.25C140.669 38.25 142.886 36.7667 146.086 33.8C147.353 32.6667 149.136 30.85 151.436 28.35L153.286 26.35C153.353 26.2833 153.453 26.1667 153.586 26C153.719 25.8333 153.853 25.7333 153.986 25.7C154.153 25.6333 154.319 25.6667 154.486 25.8C154.719 26 154.836 26.2 154.836 26.4C154.836 26.7 154.703 26.9833 154.436 27.25L152.686 29.2C150.453 31.6333 148.536 33.5833 146.936 35.05C145.336 36.5167 143.536 37.7833 141.536 38.85ZM163.973 39.35C163.406 39.7833 162.856 40 162.323 40C161.656 40 161.123 39.6833 160.723 39.05C160.323 38.4167 160.123 37.5333 160.123 36.4C160.123 35.3 160.356 33.9667 160.823 32.4C161.19 31.0333 161.64 29.7 162.173 28.4C162.706 27.1 163.49 25.3 164.523 23C163.89 23.5333 163.373 24.0667 162.973 24.6C162.573 25.1 162.223 25.5833 161.923 26.05C161.656 26.5167 161.473 26.8167 161.373 26.95L160.223 28.8C158.69 31.2667 157.506 33.0833 156.673 34.25C155.506 35.95 154.006 37.3167 152.173 38.35C151.706 38.5833 151.373 38.7 151.173 38.7C150.773 38.7 150.473 38.5167 150.273 38.15C150.04 37.7833 149.923 37.2667 149.923 36.6C149.923 36.1 149.99 35.5667 150.123 35C150.256 34.4333 150.34 34.0667 150.373 33.9C150.64 32.8667 150.973 31.85 151.373 30.85C151.806 29.85 152.34 28.6833 152.973 27.35C153.906 25.35 154.556 23.8333 154.923 22.8C155.123 22.1667 155.44 21.85 155.873 21.85C156.006 21.85 156.156 21.9 156.323 22C156.623 22.1333 156.773 22.35 156.773 22.65C156.773 22.8167 156.656 23.1333 156.423 23.6L155.823 24.85C154.89 26.5833 154.106 28.15 153.473 29.55C152.873 30.9167 152.373 32.3167 151.973 33.75C151.94 33.9167 151.84 34.2667 151.673 34.8C151.54 35.3 151.473 35.8 151.473 36.3C151.473 36.6333 151.49 36.8833 151.523 37.05C153.323 35.9833 154.873 34.4667 156.173 32.5L161.673 23.9C162.54 22.5667 163.59 21.55 164.823 20.85C165.156 20.65 165.423 20.55 165.623 20.55C165.756 20.55 165.94 20.6333 166.173 20.8C166.44 21.0333 166.573 21.3167 166.573 21.65C166.573 21.7167 166.54 21.8833 166.473 22.15C166.273 22.7167 165.906 23.5667 165.373 24.7C163.806 27.9333 162.673 30.9333 161.973 33.7C161.673 35.0333 161.54 36.1333 161.573 37C161.606 37.4 161.656 37.7167 161.723 37.95C161.823 38.1833 162.006 38.35 162.273 38.45C163.24 38.7167 166.073 35.6333 170.773 29.2C171.206 28.6 172.04 27.5333 173.273 26C173.406 25.8 173.606 25.7 173.873 25.7C174.006 25.7 174.14 25.75 174.273 25.85C174.44 25.9833 174.523 26.15 174.523 26.35C174.523 26.55 174.456 26.7167 174.323 26.85C173.99 27.2833 173.69 27.7 173.423 28.1C173.19 28.4667 172.956 28.8 172.723 29.1C171.023 31.5 169.506 33.5167 168.173 35.15C166.873 36.7833 165.473 38.1833 163.973 39.35Z" fill="#0D6EFD"/>
</svg>
